<svg height="1em" viewBox="0 0 48 48" fill="none" xmlns="http://www.w3.org/2000/svg">
  <path d="M5.87742 29.2906L6.10726 29.1634C7.34186 28.5296 8.77163 28.3776 10.1164 28.7427C11.5381 29.1286 12.7494 30.0613 13.486 31.337C14.2225 32.6128 14.4246 34.1281 14.0481 35.5523C13.6715 36.9765 12.747 38.1939 11.4761 38.939L11.466 38.9449L11.456 38.9509C10.8211 39.3332 10.1163 39.5851 9.38289 39.692C8.64947 39.7988 7.90212 39.7585 7.18449 39.5732C6.46685 39.388 5.79331 39.0617 5.20321 38.6132C4.61312 38.1648 4.1183 37.6032 3.74766 36.9614L2.01571 37.9616L3.74766 36.9614C3.37702 36.3196 3.13799 35.6103 3.04453 34.8751C2.95107 34.1399 3.00506 33.3934 3.20333 32.6792C3.40161 31.9651 3.74021 31.2976 4.19934 30.7158L2.63386 29.4804L4.19934 30.7158C4.65847 30.134 5.22894 29.6495 5.87742 29.2906ZM20.0675 11.5233C19.0213 10.4771 18.4336 9.05816 18.4336 7.57862C18.4336 6.09907 19.0213 4.68013 20.0675 3.63394C21.1137 2.58775 22.5326 2 24.0122 2C25.4917 2 26.9107 2.58775 27.9568 3.63394C29.003 4.68013 29.5908 6.09907 29.5908 7.57862C29.5908 9.05816 29.003 10.4771 27.9568 11.5233C26.9107 12.5695 25.4917 13.1572 24.0122 13.1572C22.5326 13.1572 21.1137 12.5695 20.0675 11.5233ZM42.1451 29.2896C42.7923 29.6487 43.3617 30.1331 43.8198 30.7145C44.2779 31.2959 44.6157 31.9628 44.8134 32.6761C45.0111 33.3894 45.0648 34.135 44.9714 34.8693C44.878 35.6036 44.6393 36.312 44.2693 36.953C43.8992 37.5941 43.4052 38.1551 42.8161 38.6033C42.227 39.0515 41.5545 39.3779 40.8379 39.5635C40.1213 39.7491 39.375 39.7902 38.6424 39.6843C37.9098 39.5784 37.2056 39.3277 36.5708 38.9469C35.3168 38.1944 34.4086 36.9793 34.0419 35.5636C33.6753 34.1478 33.8795 32.6446 34.6106 31.378C35.3417 30.1114 36.5411 29.1827 37.9505 28.792C39.3598 28.4014 40.8662 28.5801 42.1451 29.2896Z" stroke="currentColor" stroke-width="4"/>
  <path fill-rule="evenodd" clip-rule="evenodd" d="M16.6111 9.20313C16.395 8.21836 16.3775 7.20036 16.5597 6.20875C16.7418 5.21713 17.1201 4.27184 17.6721 3.42822C12.0393 5.06415 7.25667 8.81376 4.32374 13.8934C1.3908 18.9731 0.534537 24.9898 1.93389 30.686C2.38871 29.7863 3.01844 28.9864 3.78622 28.3332C4.554 27.6799 5.4444 27.1864 6.40527 26.8815C6.06979 23.2412 6.87109 19.5865 8.69884 16.4205C10.5266 13.2545 13.2909 10.7329 16.6111 9.20313ZM31.4147 9.20313C34.7345 10.7335 37.4983 13.2552 39.326 16.421C41.1537 19.5869 41.9553 23.2413 41.6206 26.8815C42.5817 27.1867 43.4722 27.6806 44.24 28.3343C45.0078 28.988 45.6374 29.7884 46.0919 30.6885C47.49 24.9923 46.6332 18.9763 43.7004 13.8969C40.7677 8.81759 35.9858 5.06778 30.3537 3.43075C30.9052 4.27416 31.2831 5.21903 31.4652 6.21014C31.6474 7.20125 31.6302 8.21873 31.4147 9.20313ZM39.7512 41.6699C38.7445 41.7257 37.7369 41.5804 36.787 41.2425C35.8371 40.9047 34.9641 40.381 34.2188 39.702C31.2337 41.8116 27.6682 42.9444 24.0129 42.9444C20.3576 42.9444 16.7921 41.8116 13.8071 39.702C13.0621 40.3815 12.1891 40.9058 11.2392 41.2441C10.2893 41.5824 9.28149 41.728 8.27466 41.6724C12.508 45.733 18.147 48.0002 24.0129 48.0002C29.8789 48.0002 35.5178 45.7305 39.7512 41.6699Z" fill="currentColor"/>
</svg>
