<svg height="1em" viewBox="0 0 25 25" fill="none" xmlns="http://www.w3.org/2000/svg">
  <rect x="2.74805" y="0.804688" width="13.0029" height="23.3907" fill="currentColor"/>
  <ellipse cx="21.3239" cy="17.6458" rx="2.32195" ry="3.74251" fill="currentColor"/>
  <path d="M24.5356 24.0644H21.7878V21.9891C23.2511 21.6729 24.342 19.8882 24.342 17.6609C24.342 15.203 23.0171 13.278 21.3234 13.278C19.6298 13.278 18.3049 15.203 18.3049 17.6609C18.3049 19.8882 19.3943 21.6729 20.859 21.9891V24.0644H16.0883V0.467814C16.0883 0.343742 16.0394 0.224752 15.9523 0.13702C15.8652 0.0492873 15.7471 0 15.624 0H2.61452C2.49135 0 2.37323 0.0492873 2.28614 0.13702C2.19905 0.224752 2.15013 0.343742 2.15013 0.467814V24.0644H0.464391C0.341227 24.0644 0.223107 24.1137 0.136017 24.2014C0.0489266 24.2891 0 24.4081 0 24.5322C0 24.6563 0.0489266 24.7752 0.136017 24.863C0.223107 24.9507 0.341227 25 0.464391 25H24.5356C24.6588 25 24.7769 24.9507 24.864 24.863C24.9511 24.7752 25 24.6563 25 24.5322C25 24.4081 24.9511 24.2891 24.864 24.2014C24.7769 24.1137 24.6588 24.0644 24.5356 24.0644ZM19.2337 17.6609C19.2337 15.792 20.1898 14.2136 21.3234 14.2136C22.457 14.2136 23.4132 15.792 23.4132 17.6609C23.4132 19.2669 22.7064 20.6549 21.7878 21.0152V17.6609C21.7878 17.5369 21.7389 17.4179 21.6518 17.3301C21.5647 17.2424 21.4466 17.1931 21.3234 17.1931C21.2003 17.1931 21.0821 17.2424 20.995 17.3301C20.908 17.4179 20.859 17.5369 20.859 17.6609V21.0142C19.9419 20.6554 19.2337 19.2669 19.2337 17.6609ZM9.11924 22.3213H9.76381V24.0644H8.4742V22.3213H9.11924ZM10.6926 24.0644V21.8535C10.6926 21.7294 10.6437 21.6104 10.5566 21.5227C10.4695 21.435 10.3514 21.3857 10.2282 21.3857H8.00981C7.88664 21.3857 7.76852 21.435 7.68143 21.5227C7.59434 21.6104 7.54542 21.7294 7.54542 21.8535V24.0644H3.07891V0.935629H15.1596V24.0644H10.6926ZM5.82996 3.72193V4.52657C5.82996 4.65064 5.78103 4.76963 5.69394 4.85737C5.60685 4.9451 5.48873 4.99439 5.36557 4.99439C5.2424 4.99439 5.12428 4.9451 5.03719 4.85737C4.9501 4.76963 4.90118 4.65064 4.90118 4.52657V3.72193C4.90118 3.59786 4.9501 3.47887 5.03719 3.39114C5.12428 3.3034 5.2424 3.25412 5.36557 3.25412C5.48873 3.25412 5.60685 3.3034 5.69394 3.39114C5.78103 3.47887 5.82996 3.59786 5.82996 3.72193ZM8.33209 3.72193V4.52657C8.33209 4.65064 8.28317 4.76963 8.19608 4.85737C8.10899 4.9451 7.99087 4.99439 7.8677 4.99439C7.74454 4.99439 7.62642 4.9451 7.53933 4.85737C7.45224 4.76963 7.40331 4.65064 7.40331 4.52657V3.72193C7.40331 3.59786 7.45224 3.47887 7.53933 3.39114C7.62642 3.3034 7.74454 3.25412 7.8677 3.25412C7.99087 3.25412 8.10899 3.3034 8.19608 3.39114C8.28317 3.47887 8.33209 3.59786 8.33209 3.72193ZM10.8347 3.72193V4.52657C10.8347 4.65064 10.7858 4.76963 10.6987 4.85737C10.6116 4.9451 10.4935 4.99439 10.3703 4.99439C10.2471 4.99439 10.129 4.9451 10.0419 4.85737C9.95484 4.76963 9.90591 4.65064 9.90591 4.52657V3.72193C9.90591 3.59786 9.95484 3.47887 10.0419 3.39114C10.129 3.3034 10.2471 3.25412 10.3703 3.25412C10.4935 3.25412 10.6116 3.3034 10.6987 3.39114C10.7858 3.47887 10.8347 3.59786 10.8347 3.72193ZM13.3373 3.72193V4.52657C13.3373 4.65064 13.2884 4.76963 13.2013 4.85737C13.1142 4.9451 12.9961 4.99439 12.8729 4.99439C12.7497 4.99439 12.6316 4.9451 12.5445 4.85737C12.4574 4.76963 12.4085 4.65064 12.4085 4.52657V3.72193C12.4085 3.59786 12.4574 3.47887 12.5445 3.39114C12.6316 3.3034 12.7497 3.25412 12.8729 3.25412C12.9961 3.25412 13.1142 3.3034 13.2013 3.39114C13.2884 3.47887 13.3373 3.59786 13.3373 3.72193ZM5.82996 7.40457V8.20921C5.82996 8.33328 5.78103 8.45227 5.69394 8.54C5.60685 8.62773 5.48873 8.67702 5.36557 8.67702C5.2424 8.67702 5.12428 8.62773 5.03719 8.54C4.9501 8.45227 4.90118 8.33328 4.90118 8.20921V7.40457C4.90118 7.28049 4.9501 7.1615 5.03719 7.07377C5.12428 6.98604 5.2424 6.93675 5.36557 6.93675C5.48873 6.93675 5.60685 6.98604 5.69394 7.07377C5.78103 7.1615 5.82996 7.28049 5.82996 7.40457ZM8.33209 7.40457V8.20921C8.33209 8.33328 8.28317 8.45227 8.19608 8.54C8.10899 8.62773 7.99087 8.67702 7.8677 8.67702C7.74454 8.67702 7.62642 8.62773 7.53933 8.54C7.45224 8.45227 7.40331 8.33328 7.40331 8.20921V7.40457C7.40331 7.28049 7.45224 7.1615 7.53933 7.07377C7.62642 6.98604 7.74454 6.93675 7.8677 6.93675C7.99087 6.93675 8.10899 6.98604 8.19608 7.07377C8.28317 7.1615 8.33209 7.28049 8.33209 7.40457ZM10.8347 7.40457V8.20921C10.8347 8.33328 10.7858 8.45227 10.6987 8.54C10.6116 8.62773 10.4935 8.67702 10.3703 8.67702C10.2471 8.67702 10.129 8.62773 10.0419 8.54C9.95484 8.45227 9.90591 8.33328 9.90591 8.20921V7.40457C9.90591 7.28049 9.95484 7.1615 10.0419 7.07377C10.129 6.98604 10.2471 6.93675 10.3703 6.93675C10.4935 6.93675 10.6116 6.98604 10.6987 7.07377C10.7858 7.1615 10.8347 7.28049 10.8347 7.40457ZM13.3373 7.40457V8.20921C13.3373 8.33328 13.2884 8.45227 13.2013 8.54C13.1142 8.62773 12.9961 8.67702 12.8729 8.67702C12.7497 8.67702 12.6316 8.62773 12.5445 8.54C12.4574 8.45227 12.4085 8.33328 12.4085 8.20921V7.40457C12.4085 7.28049 12.4574 7.1615 12.5445 7.07377C12.6316 6.98604 12.7497 6.93675 12.8729 6.93675C12.9961 6.93675 13.1142 6.98604 13.2013 7.07377C13.2884 7.1615 13.3373 7.28049 13.3373 7.40457ZM5.82996 11.0877V11.8918C5.82996 12.0159 5.78103 12.1349 5.69394 12.2226C5.60685 12.3104 5.48873 12.3597 5.36557 12.3597C5.2424 12.3597 5.12428 12.3104 5.03719 12.2226C4.9501 12.1349 4.90118 12.0159 4.90118 11.8918V11.0872C4.90118 10.9631 4.9501 10.8441 5.03719 10.7564C5.12428 10.6687 5.2424 10.6194 5.36557 10.6194C5.48873 10.6194 5.60685 10.6687 5.69394 10.7564C5.78103 10.8441 5.82996 10.9631 5.82996 11.0872V11.0877ZM8.33209 11.0877V11.8918C8.33209 12.0159 8.28317 12.1349 8.19608 12.2226C8.10899 12.3104 7.99087 12.3597 7.8677 12.3597C7.74454 12.3597 7.62642 12.3104 7.53933 12.2226C7.45224 12.1349 7.40331 12.0159 7.40331 11.8918V11.0872C7.40331 10.9631 7.45224 10.8441 7.53933 10.7564C7.62642 10.6687 7.74454 10.6194 7.8677 10.6194C7.99087 10.6194 8.10899 10.6687 8.19608 10.7564C8.28317 10.8441 8.33209 10.9631 8.33209 11.0872V11.0877ZM10.8347 11.0877V11.8918C10.8347 12.0159 10.7858 12.1349 10.6987 12.2226C10.6116 12.3104 10.4935 12.3597 10.3703 12.3597C10.2471 12.3597 10.129 12.3104 10.0419 12.2226C9.95484 12.1349 9.90591 12.0159 9.90591 11.8918V11.0872C9.90591 10.9631 9.95484 10.8441 10.0419 10.7564C10.129 10.6687 10.2471 10.6194 10.3703 10.6194C10.4935 10.6194 10.6116 10.6687 10.6987 10.7564C10.7858 10.8441 10.8347 10.9631 10.8347 11.0872V11.0877ZM13.3373 11.0877V11.8918C13.3373 12.0159 13.2884 12.1349 13.2013 12.2226C13.1142 12.3104 12.9961 12.3597 12.8729 12.3597C12.7497 12.3597 12.6316 12.3104 12.5445 12.2226C12.4574 12.1349 12.4085 12.0159 12.4085 11.8918V11.0872C12.4085 10.9631 12.4574 10.8441 12.5445 10.7564C12.6316 10.6687 12.7497 10.6194 12.8729 10.6194C12.9961 10.6194 13.1142 10.6687 13.2013 10.7564C13.2884 10.8441 13.3373 10.9631 13.3373 11.0872V11.0877ZM5.82996 14.7708V15.5749C5.82996 15.699 5.78103 15.818 5.69394 15.9057C5.60685 15.9935 5.48873 16.0428 5.36557 16.0428C5.2424 16.0428 5.12428 15.9935 5.03719 15.9057C4.9501 15.818 4.90118 15.699 4.90118 15.5749V14.7708C4.90118 14.6467 4.9501 14.5277 5.03719 14.44C5.12428 14.3522 5.2424 14.303 5.36557 14.303C5.48873 14.303 5.60685 14.3522 5.69394 14.44C5.78103 14.5277 5.82996 14.6467 5.82996 14.7708ZM8.33209 14.7708V15.5749C8.33209 15.699 8.28317 15.818 8.19608 15.9057C8.10899 15.9935 7.99087 16.0428 7.8677 16.0428C7.74454 16.0428 7.62642 15.9935 7.53933 15.9057C7.45224 15.818 7.40331 15.699 7.40331 15.5749V14.7708C7.40331 14.6467 7.45224 14.5277 7.53933 14.44C7.62642 14.3522 7.74454 14.303 7.8677 14.303C7.99087 14.303 8.10899 14.3522 8.19608 14.44C8.28317 14.5277 8.33209 14.6467 8.33209 14.7708ZM10.8347 14.7708V15.5749C10.8347 15.699 10.7858 15.818 10.6987 15.9057C10.6116 15.9935 10.4935 16.0428 10.3703 16.0428C10.2471 16.0428 10.129 15.9935 10.0419 15.9057C9.95484 15.818 9.90591 15.699 9.90591 15.5749V14.7708C9.90591 14.6467 9.95484 14.5277 10.0419 14.44C10.129 14.3522 10.2471 14.303 10.3703 14.303C10.4935 14.303 10.6116 14.3522 10.6987 14.44C10.7858 14.5277 10.8347 14.6467 10.8347 14.7708ZM13.3373 14.7708V15.5749C13.3373 15.699 13.2884 15.818 13.2013 15.9057C13.1142 15.9935 12.9961 16.0428 12.8729 16.0428C12.7497 16.0428 12.6316 15.9935 12.5445 15.9057C12.4574 15.818 12.4085 15.699 12.4085 15.5749V14.7708C12.4085 14.6467 12.4574 14.5277 12.5445 14.44C12.6316 14.3522 12.7497 14.303 12.8729 14.303C12.9961 14.303 13.1142 14.3522 13.2013 14.44C13.2884 14.5277 13.3373 14.6467 13.3373 14.7708ZM5.82996 18.4534V19.258C5.82996 19.3821 5.78103 19.5011 5.69394 19.5888C5.60685 19.6766 5.48873 19.7259 5.36557 19.7259C5.2424 19.7259 5.12428 19.6766 5.03719 19.5888C4.9501 19.5011 4.90118 19.3821 4.90118 19.258V18.4534C4.90118 18.3293 4.9501 18.2103 5.03719 18.1226C5.12428 18.0349 5.2424 17.9856 5.36557 17.9856C5.48873 17.9856 5.60685 18.0349 5.69394 18.1226C5.78103 18.2103 5.82996 18.3293 5.82996 18.4534ZM8.33209 18.4534V19.258C8.33209 19.3821 8.28317 19.5011 8.19608 19.5888C8.10899 19.6766 7.99087 19.7259 7.8677 19.7259C7.74454 19.7259 7.62642 19.6766 7.53933 19.5888C7.45224 19.5011 7.40331 19.3821 7.40331 19.258V18.4534C7.40331 18.3293 7.45224 18.2103 7.53933 18.1226C7.62642 18.0349 7.74454 17.9856 7.8677 17.9856C7.99087 17.9856 8.10899 18.0349 8.19608 18.1226C8.28317 18.2103 8.33209 18.3293 8.33209 18.4534ZM10.8347 18.4534V19.258C10.8347 19.3821 10.7858 19.5011 10.6987 19.5888C10.6116 19.6766 10.4935 19.7259 10.3703 19.7259C10.2471 19.7259 10.129 19.6766 10.0419 19.5888C9.95484 19.5011 9.90591 19.3821 9.90591 19.258V18.4534C9.90591 18.3293 9.95484 18.2103 10.0419 18.1226C10.129 18.0349 10.2471 17.9856 10.3703 17.9856C10.4935 17.9856 10.6116 18.0349 10.6987 18.1226C10.7858 18.2103 10.8347 18.3293 10.8347 18.4534ZM13.3373 18.4534V19.258C13.3373 19.3821 13.2884 19.5011 13.2013 19.5888C13.1142 19.6766 12.9961 19.7259 12.8729 19.7259C12.7497 19.7259 12.6316 19.6766 12.5445 19.5888C12.4574 19.5011 12.4085 19.3821 12.4085 19.258V18.4534C12.4085 18.3293 12.4574 18.2103 12.5445 18.1226C12.6316 18.0349 12.7497 17.9856 12.8729 17.9856C12.9961 17.9856 13.1142 18.0349 13.2013 18.1226C13.2884 18.2103 13.3373 18.3293 13.3373 18.4534Z" fill="white"/>
</svg>
