<svg height="1em" viewBox="0 0 32 32" fill="none" xmlns="http://www.w3.org/2000/svg">
  <path d="M15.4898 13.2334C13.0223 13.2334 11.0151 11.2216 11.0151 8.74849C11.0151 6.27535 13.0217 4.26357 15.4898 4.26357C17.9579 4.26357 19.9651 6.27535 19.9651 8.74849C19.9651 11.2216 17.9573 13.2334 15.4898 13.2334ZM15.4898 6.99355C14.5246 6.99355 13.7394 7.78051 13.7394 8.74849C13.7394 9.71648 14.5246 10.5034 15.4898 10.5034C16.455 10.5034 17.2413 9.71648 17.2413 8.74849C17.2413 7.78051 16.4561 6.99355 15.4898 6.99355Z" fill="currentColor"/>
  <path d="M13.5668 15.1411H17.41C21.8812 15.1411 25.5197 18.7874 25.5197 23.2688V27.1207L22.5556 28.709C22.7117 28.2072 22.7959 27.674 22.7959 27.1207V23.2688C22.7959 20.2925 20.3806 17.8711 17.4106 17.8711H13.5674C10.5974 17.8711 8.18204 20.2925 8.18204 23.2688V28.1774L5.4577 26.0508V23.2688C5.4577 18.7874 9.09563 15.1411 13.5668 15.1411Z" fill="currentColor"/>
  <path d="M2.65824 16C2.65824 8.63155 8.63155 2.65824 16 2.65824C23.3685 2.65824 29.3418 8.63155 29.3418 16C29.3418 21.1479 26.4259 25.6175 22.1514 27.8425V30.6554L22.1939 30.7566C27.9522 28.3369 32 22.6427 32 16C32 7.16344 24.8366 0 16 0C7.16344 0 0 7.16344 0 16C0 24.8366 7.16344 32 16 32C16.4778 32 16.9511 31.979 17.4189 31.9379V29.2673C16.9531 29.3165 16.4797 29.3418 16 29.3418C8.63155 29.3418 2.65824 23.3685 2.65824 16Z" fill="currentColor"/>
</svg>
