<svg height="1em" viewBox="0 0 24 24" fill="none" xmlns="http://www.w3.org/2000/svg">
  <path opacity="0.3" d="M12 4C9.24 4 7 6.24 7 9C7 11.85 9.92 16.21 12 18.88C14.11 16.19 17 11.88 17 9C17 6.24 14.76 4 12 4ZM12 11.5C11.337 11.5 10.7011 11.2366 10.2322 10.7678C9.76339 10.2989 9.5 9.66304 9.5 9C9.5 8.33696 9.76339 7.70107 10.2322 7.23223C10.7011 6.76339 11.337 6.5 12 6.5C12.663 6.5 13.2989 6.76339 13.7678 7.23223C14.2366 7.70107 14.5 8.33696 14.5 9C14.5 9.66304 14.2366 10.2989 13.7678 10.7678C13.2989 11.2366 12.663 11.5 12 11.5Z" fill="currentColor"/>
  <path d="M12 2C8.13 2 5 5.13 5 9C5 14.25 12 22 12 22C12 22 19 14.25 19 9C19 5.13 15.87 2 12 2ZM7 9C7 6.24 9.24 4 12 4C14.76 4 17 6.24 17 9C17 11.88 14.12 16.19 12 18.88C9.92 16.21 7 11.85 7 9Z" fill="currentColor"/>
  <path d="M12 11.5C13.3807 11.5 14.5 10.3807 14.5 9C14.5 7.61929 13.3807 6.5 12 6.5C10.6193 6.5 9.5 7.61929 9.5 9C9.5 10.3807 10.6193 11.5 12 11.5Z" fill="currentColor"/>
</svg>
