<svg height="1em" viewBox="0 0 24 24" fill="none" xmlns="http://www.w3.org/2000/svg">
<path d="M20.318 3.98203L12.3539 1.26797C12.2578 1.23516 12.1289 1.21875 12 1.21875C11.8711 1.21875 11.7422 1.23516 11.6461 1.26797L3.68203 3.98203C3.4875 4.04766 3.32812 4.27266 3.32812 4.47891V15.7852C3.32812 15.9914 3.46172 16.2633 3.62344 16.3922L11.7023 22.6875C11.7844 22.7508 11.8898 22.7836 11.9977 22.7836C12.1055 22.7836 12.2133 22.7508 12.293 22.6875L20.3719 16.3922C20.5336 16.2656 20.6672 15.9937 20.6672 15.7852V4.47891C20.6719 4.27266 20.5125 4.05 20.318 3.98203ZM18.9844 15.3352L12 20.7773L5.01562 15.3352V5.31328L12 2.93203L18.9844 5.31328V15.3352Z" fill="currentColor"/>
<path d="M5.01562 5.31338V15.3353L12 20.7774L18.9844 15.3353V5.31338L12 2.93213L5.01562 5.31338ZM14.8312 7.6876H16.125C16.2773 7.6876 16.3664 7.86104 16.2773 7.98525L11.2945 14.8454C11.2595 14.8934 11.2137 14.9324 11.1607 14.9592C11.1078 14.9861 11.0492 15.0001 10.9898 15.0001C10.9305 15.0001 10.8719 14.9861 10.819 14.9592C10.766 14.9324 10.7202 14.8934 10.6852 14.8454L7.72266 10.7673C7.63359 10.6431 7.72266 10.4696 7.875 10.4696H9.16875C9.29063 10.4696 9.40313 10.5282 9.47344 10.6243L10.9898 12.7126L14.5266 7.84229C14.5969 7.74619 14.7117 7.6876 14.8312 7.6876Z" fill="currentColor" fill-opacity="0.15"/>
<path d="M9.47373 10.6242C9.40342 10.5281 9.29092 10.4695 9.16905 10.4695H7.8753C7.72295 10.4695 7.63389 10.643 7.72295 10.7672L10.6855 14.8453C10.7205 14.8933 10.7663 14.9323 10.8193 14.9591C10.8722 14.986 10.9308 15 10.9901 15C11.0495 15 11.1081 14.986 11.161 14.9591C11.2139 14.9323 11.2598 14.8933 11.2948 14.8453L16.2776 7.98516C16.3667 7.86094 16.2776 7.6875 16.1253 7.6875H14.8315C14.712 7.6875 14.5972 7.74609 14.5269 7.84219L10.9901 12.7125L9.47373 10.6242Z" fill="currentColor"/>
</svg>
