<svg width="32" height="33" viewBox="0 0 32 33" fill="none" xmlns="http://www.w3.org/2000/svg">
<path opacity="0.3" d="M18.8946 4.5H10.668V23.1667H25.3346V10.94L18.8946 4.5ZM22.0013 12.5H19.3346V15.1667H16.668V12.5H14.0013V9.83333H16.668V7.16667H19.3346V9.83333H22.0013V12.5Z" fill="#FFE3AD"/>
<path d="M24.0013 31.1673H5.33464C3.86797 31.1673 2.66797 29.9673 2.66797 28.5006V9.83398H5.33464V28.5006H24.0013V31.1673ZM19.3346 9.83398V7.16732H16.668V9.83398H14.0013V12.5007H16.668V15.1673H19.3346V12.5007H22.0013V9.83398H19.3346ZM20.0013 1.83398H10.668C9.2013 1.83398 8.01464 3.03398 8.01464 4.50065L8.0013 23.1673C8.0013 24.634 9.18797 25.834 10.6546 25.834H25.3346C26.8013 25.834 28.0013 24.634 28.0013 23.1673V9.83398L20.0013 1.83398ZM25.3346 23.1673H10.668V4.50065H18.8946L25.3346 10.9406V23.1673Z" fill="#FFE3AD"/>
</svg>
