<svg width="32" height="33" viewBox="0 0 32 33" fill="none" xmlns="http://www.w3.org/2000/svg">
<path d="M13.612 22.9388L10.9987 19.7921L7.33203 24.4988H21.9987L17.2787 18.2188L13.612 22.9388Z" fill="#FFE3AD"/>
<path opacity="0.3" d="M21.9987 24.5H7.33203L10.9987 19.7933L13.612 22.94L17.2787 18.22L21.9987 24.5ZM22.6654 9.83333H18.6654V8.5H5.33203V27.1667H23.9987V13.8333H22.6654V9.83333Z" fill="#FFE3AD"/>
<path d="M26.668 5.83398V1.83398H24.0013V5.83398H20.0013V8.50065H24.0013V12.4873H26.668V8.50065H30.668V5.83398H26.668ZM24.0013 27.1673H5.33464V8.50065H18.668V5.83398H5.33464C3.86797 5.83398 2.66797 7.03398 2.66797 8.50065V27.1673C2.66797 28.634 3.86797 29.834 5.33464 29.834H24.0013C25.468 29.834 26.668 28.634 26.668 27.1673V13.834H24.0013V27.1673Z" fill="#FFE3AD"/>
</svg>
