<svg width="1em" height="1em" viewBox="0 0 12 12" fill="none" xmlns="http://www.w3.org/2000/svg">
<path opacity="0.2" d="M6 10.125C8.27817 10.125 10.125 8.27817 10.125 6C10.125 3.72183 8.27817 1.875 6 1.875C3.72183 1.875 1.875 3.72183 1.875 6C1.875 8.27817 3.72183 10.125 6 10.125Z" fill="currentColor"/>
<path d="M3.36719 4.67432H1.49219V2.79932" stroke="currentColor" stroke-linecap="round" stroke-linejoin="round"/>
<path d="M3.08318 8.91682C3.66007 9.49371 4.39507 9.88658 5.19525 10.0457C5.99542 10.2049 6.82482 10.1232 7.57856 9.811C8.33231 9.49879 8.97654 8.97008 9.42981 8.29173C9.88307 7.61338 10.125 6.81585 10.125 6C10.125 5.18415 9.88307 4.38663 9.42981 3.70827C8.97654 3.02992 8.33231 2.50121 7.57856 2.189C6.82482 1.87679 5.99542 1.7951 5.19525 1.95426C4.39507 2.11343 3.66007 2.50629 3.08318 3.08319L1.49219 4.67418" stroke="currentColor" stroke-linecap="round" stroke-linejoin="round"/>
</svg>
