<svg width="49" height="48" viewBox="0 0 49 48" fill="none" xmlns="http://www.w3.org/2000/svg">
<path d="M6.37742 29.2906L6.60726 29.1634C7.84186 28.5296 9.27163 28.3776 10.6164 28.7427C12.0381 29.1286 13.2494 30.0613 13.986 31.337C14.7225 32.6128 14.9246 34.1281 14.5481 35.5523C14.1715 36.9765 13.247 38.1939 11.9761 38.939L11.966 38.9449L11.956 38.9509C11.3211 39.3332 10.6163 39.5851 9.88289 39.692C9.14947 39.7988 8.40212 39.7585 7.68449 39.5732C6.96685 39.388 6.29331 39.0617 5.70321 38.6132C5.11312 38.1648 4.6183 37.6032 4.24766 36.9614L2.51571 37.9616L4.24766 36.9614C3.87702 36.3196 3.63799 35.6103 3.54453 34.8751C3.45107 34.1399 3.50506 33.3934 3.70333 32.6792C3.90161 31.9651 4.24021 31.2976 4.69934 30.7158L3.13386 29.4804L4.69934 30.7158C5.15847 30.134 5.72894 29.6495 6.37742 29.2906ZM20.5675 11.5233C19.5213 10.4771 18.9336 9.05816 18.9336 7.57862C18.9336 6.09907 19.5213 4.68013 20.5675 3.63394C21.6137 2.58775 23.0326 2 24.5122 2C25.9917 2 27.4107 2.58775 28.4568 3.63394C29.503 4.68013 30.0908 6.09907 30.0908 7.57862C30.0908 9.05816 29.503 10.4771 28.4568 11.5233C27.4107 12.5695 25.9917 13.1572 24.5122 13.1572C23.0326 13.1572 21.6137 12.5695 20.5675 11.5233ZM42.6451 29.2896C43.2923 29.6487 43.8617 30.1331 44.3198 30.7145C44.7779 31.2959 45.1157 31.9628 45.3134 32.6761C45.5111 33.3894 45.5648 34.135 45.4714 34.8693C45.378 35.6036 45.1393 36.312 44.7693 36.953C44.3992 37.5941 43.9052 38.1551 43.3161 38.6033C42.727 39.0515 42.0545 39.3779 41.3379 39.5635C40.6213 39.7491 39.875 39.7902 39.1424 39.6843C38.4098 39.5784 37.7056 39.3277 37.0708 38.9469C35.8168 38.1944 34.9086 36.9793 34.5419 35.5636C34.1753 34.1478 34.3795 32.6446 35.1106 31.378C35.8417 30.1114 37.0411 29.1827 38.4505 28.792C39.8598 28.4014 41.3662 28.5801 42.6451 29.2896Z" stroke="#52489C" stroke-width="4"/>
<path fill-rule="evenodd" clip-rule="evenodd" d="M17.1111 9.20264C16.895 8.21787 16.8775 7.19988 17.0597 6.20826C17.2418 5.21665 17.6201 4.27135 18.1721 3.42773C12.5393 5.06367 7.75667 8.81328 4.82374 13.8929C1.8908 18.9726 1.03454 24.9893 2.43389 30.6855C2.88871 29.7858 3.51844 28.986 4.28622 28.3327C5.054 27.6794 5.9444 27.1859 6.90527 26.881C6.56979 23.2407 7.37109 19.586 9.19884 16.42C11.0266 13.254 13.7909 10.7325 17.1111 9.20264ZM31.9147 9.20264C35.2345 10.7331 37.9983 13.2547 39.826 16.4205C41.6537 19.5864 42.4553 23.2408 42.1206 26.881C43.0817 27.1862 43.9722 27.6801 44.74 28.3338C45.5078 28.9875 46.1374 29.7879 46.5919 30.688C47.99 24.9919 47.1332 18.9758 44.2004 13.8964C41.2677 8.8171 36.4858 5.06729 30.8537 3.43026C31.4052 4.27367 31.7831 5.21854 31.9652 6.20965C32.1474 7.20076 32.1302 8.21824 31.9147 9.20264ZM40.2512 41.6694C39.2445 41.7252 38.2369 41.5799 37.287 41.2421C36.3371 40.9042 35.4641 40.3805 34.7188 39.7015C31.7337 41.8111 28.1682 42.9439 24.5129 42.9439C20.8576 42.9439 17.2921 41.8111 14.3071 39.7015C13.5621 40.381 12.6891 40.9053 11.7392 41.2436C10.7893 41.5819 9.78149 41.7275 8.77466 41.672C13.008 45.7325 18.647 47.9997 24.5129 47.9997C30.3789 47.9997 36.0178 45.73 40.2512 41.6694Z" fill="#52489C"/>
</svg>
