<svg width="1em" height="1em" viewBox="0 0 100 100" fill="none" xmlns="http://www.w3.org/2000/svg">
<path d="M37.0378 23.6257C31.6166 23.6257 27.2067 19.224 27.2067 13.8129C27.2067 8.40171 31.6153 4 37.0378 4C42.4603 4 46.8701 8.40171 46.8701 13.8129C46.8701 19.224 42.459 23.6257 37.0378 23.6257V23.6257ZM37.0378 9.97311C34.9172 9.97311 33.1922 11.695 33.1922 13.8129C33.1922 15.9308 34.9172 17.6526 37.0378 17.6526C39.1583 17.6526 40.886 15.9308 40.886 13.8129C40.886 11.695 39.1609 9.97311 37.0378 9.97311Z" fill="currentColor"/>
<path d="M65.3457 37.2784C59.9246 37.2784 55.5147 32.8767 55.5147 27.4655C55.5147 22.0543 59.9233 17.6526 65.3457 17.6526C70.7682 17.6526 75.1781 22.0543 75.1781 27.4655C75.1781 32.8767 70.7669 37.2784 65.3457 37.2784ZM65.3457 23.6257C63.2252 23.6257 61.5002 25.3476 61.5002 27.4655C61.5002 29.5834 63.2252 31.3053 65.3457 31.3053C67.4663 31.3053 69.1939 29.5834 69.1939 27.4655C69.1939 25.3476 67.4689 23.6257 65.3457 23.6257Z" fill="currentColor"/>
<path d="M41.2596 27.7999H32.816C22.9927 27.7999 15 35.7777 15 45.5829V79.3795L19.9986 74.8762C20.0308 74.8453 23.5595 71.7938 28.5903 71.7938H38.7358C38.7126 71.4067 38.6739 71.0235 38.6739 70.6301V65.8194H28.5903C25.6169 65.8194 23.0287 66.5383 20.9855 67.4088V45.5829C20.9855 39.071 26.292 33.773 32.8173 33.773H41.2609C47.7861 33.773 53.0927 39.071 53.0927 45.5829V54.0108C53.0927 57.3491 51.6845 60.3543 49.4455 62.5043V69.7891C55.1591 66.8237 59.0768 60.8699 59.0768 54.0108V45.5829C59.0768 35.7777 51.0842 27.7999 41.2609 27.7999H41.2596Z" fill="currentColor"/>
<path d="M67.3233 44.4204H61.3842C61.4087 44.81 61.4692 45.1881 61.4692 45.5841V50.3948H67.3233C73.8486 50.3948 79.1551 55.6928 79.1551 62.2047V84.0306C77.1118 83.1588 74.5236 82.4412 71.5528 82.4412H58.8823C52.357 82.4412 47.0505 77.1432 47.0505 70.6313V62.2034C47.0505 58.8651 48.4586 55.86 50.6977 53.7099V46.4251C44.984 49.3905 41.0663 55.3443 41.0663 62.2034V70.6313C41.0663 80.4365 49.059 88.4144 58.8823 88.4144H71.5528C76.5746 88.4144 80.1213 91.4787 80.1419 91.4967L85.1406 96V62.2034C85.1406 52.3982 77.1479 44.4204 67.3246 44.4204H67.3233Z" fill="currentColor"/>
</svg>
