<svg width="33" height="32" viewBox="0 0 33 32" fill="none" xmlns="http://www.w3.org/2000/svg">
<path opacity="0.2" d="M16.3906 27C22.4658 27 27.3906 22.0751 27.3906 16C27.3906 9.92487 22.4658 5 16.3906 5C10.3155 5 5.39062 9.92487 5.39062 16C5.39062 22.0751 10.3155 27 16.3906 27Z" fill="#FFB932"/>
<path d="M9.36719 12.4644H4.36719V7.46436" stroke="#FFB932" stroke-linecap="round" stroke-linejoin="round"/>
<path d="M8.60983 23.7782C10.1482 25.3166 12.1082 26.3642 14.242 26.7886C16.3758 27.2131 18.5875 26.9952 20.5975 26.1627C22.6075 25.3301 24.3255 23.9202 25.5342 22.1113C26.7429 20.3023 27.388 18.1756 27.388 16C27.388 13.8244 26.7429 11.6977 25.5342 9.88873C24.3255 8.07979 22.6075 6.66989 20.5975 5.83733C18.5875 5.00477 16.3758 4.78693 14.242 5.21137C12.1082 5.6358 10.1482 6.68345 8.60983 8.22183L4.36719 12.4645" stroke="#FFB932" stroke-linecap="round" stroke-linejoin="round"/>
</svg>
