<svg height="1em" viewBox="0 0 116 37" fill="none" xmlns="http://www.w3.org/2000/svg">
<path d="M8.69116 7.77114C6.55341 7.77114 4.81445 6.02821 4.81445 3.88557C4.81445 1.74293 6.5529 0 8.69116 0C10.8294 0 12.5684 1.74293 12.5684 3.88557C12.5684 6.02821 10.8289 7.77114 8.69116 7.77114ZM8.69116 2.36515C7.85496 2.36515 7.17472 3.04694 7.17472 3.88557C7.17472 4.72419 7.85496 5.40599 8.69116 5.40599C9.52737 5.40599 10.2086 4.72419 10.2086 3.88557C10.2086 3.04694 9.52838 2.36515 8.69116 2.36515Z" fill="currentColor"/>
<path d="M19.8533 13.1774C17.7155 13.1774 15.9766 11.4345 15.9766 9.29182C15.9766 7.14918 17.715 5.40625 19.8533 5.40625C21.9915 5.40625 23.7305 7.14918 23.7305 9.29182C23.7305 11.4345 21.991 13.1774 19.8533 13.1774ZM19.8533 7.7714C19.0171 7.7714 18.3368 8.45319 18.3368 9.29182C18.3368 10.1304 19.0171 10.8122 19.8533 10.8122C20.6895 10.8122 21.3707 10.1304 21.3707 9.29182C21.3707 8.45319 20.6905 7.7714 19.8533 7.7714Z" fill="currentColor"/>
<path d="M10.355 9.42383H7.02543C3.15177 9.42383 0 12.5828 0 16.4653V29.8476L1.97112 28.0645C1.98382 28.0522 3.37529 26.844 5.35912 26.844H9.35979C9.35064 26.6907 9.3354 26.539 9.3354 26.3832V24.4783H5.35912C4.1866 24.4783 3.16599 24.7629 2.36027 25.1077V16.4653C2.36027 13.8868 4.45281 11.789 7.02594 11.789H10.3555C12.9286 11.789 15.0212 13.8868 15.0212 16.4653V19.8025C15.0212 21.1243 14.4659 22.3143 13.583 23.1656V26.0501C15.836 24.876 17.3809 22.5185 17.3809 19.8025V16.4653C17.3809 12.5828 14.2292 9.42383 10.3555 9.42383H10.355Z" fill="currentColor"/>
<path d="M20.6333 16.0049H18.2913C18.301 16.1592 18.3248 16.3089 18.3248 16.4657V18.3705H20.6333C23.2064 18.3705 25.2989 20.4684 25.2989 23.0469V31.6892C24.4932 31.344 23.4726 31.0599 22.3011 31.0599H17.3047C14.7316 31.0599 12.6391 28.962 12.6391 26.3835V23.0464C12.6391 21.7245 13.1943 20.5346 14.0773 19.6832V16.7987C11.8242 17.9729 10.2793 20.3304 10.2793 23.0464V26.3835C10.2793 30.2661 13.4311 33.425 17.3047 33.425H22.3011C24.2814 33.425 25.68 34.6384 25.6881 34.6455L27.6592 36.4287V23.0464C27.6592 19.1638 24.5075 16.0049 20.6338 16.0049H20.6333Z" fill="currentColor"/>
<path d="M44.5391 24.0372L50.0897 30.0608H46.7246L42.2662 24.8697V30.0608H39.7754V13.8525H42.2662V23.2709L46.6367 17.9922H50.0897L44.5391 24.0372Z" fill="currentColor"/>
<path d="M54.3717 17.9922V30.0608H51.8809V17.9922H54.3717Z" fill="currentColor"/>
<path d="M66.2696 18.3861C67.0199 18.7807 67.6062 19.3647 68.0288 20.1382C68.4515 20.9126 68.6623 21.847 68.6623 22.9417V30.0601H66.1934V23.3134C66.1934 22.2335 65.9236 21.4045 65.3841 20.8276C64.8456 20.2507 64.1095 19.9625 63.1772 19.9625C62.245 19.9625 61.5048 20.2507 60.9587 20.8276C60.4126 21.4045 60.1393 22.2335 60.1393 23.3134V30.0601H57.6484V17.9915H60.1393V19.3713C60.5472 18.8749 61.0679 18.4884 61.7025 18.2109C62.336 17.9339 63.0096 17.7949 63.7239 17.7949C64.6708 17.7949 65.5192 17.992 66.2696 18.3861Z" fill="currentColor"/>
<path d="M73.6565 29.7433C72.9051 29.4002 72.3117 28.9327 71.8748 28.3416C71.4379 27.7499 71.2047 27.0895 71.1758 26.3593H73.7545C73.7982 26.8705 74.042 27.2977 74.4861 27.6404C74.9306 27.9841 75.4884 28.1557 76.1585 28.1557C76.8285 28.1557 77.4006 28.0208 77.7862 27.7504C78.1723 27.4805 78.3648 27.1338 78.3648 26.7101C78.3648 26.258 78.1499 25.9219 77.7201 25.7025C77.2908 25.4835 76.6096 25.2427 75.6774 24.9799C74.7736 24.732 74.0385 24.4906 73.47 24.2569C72.9015 24.0232 72.4098 23.6657 71.9947 23.1835C71.5797 22.7019 71.3714 22.0664 71.3714 21.2782C71.3714 20.6356 71.5609 20.0485 71.9398 19.5149C72.3188 18.9823 72.8609 18.5622 73.5675 18.2557C74.2742 17.9492 75.086 17.7959 76.0045 17.7959C77.3736 17.7959 78.4766 18.1426 79.3148 18.8362C80.152 19.5302 80.6006 20.4757 80.6585 21.6723H78.1677C78.124 21.1326 77.9055 20.7018 77.5118 20.3805C77.1181 20.0592 76.5867 19.8983 75.9161 19.8983C75.2455 19.8983 74.7578 20.0226 74.4088 20.271C74.0588 20.519 73.884 20.8479 73.884 21.2568C73.884 21.5781 74.0009 21.848 74.2341 22.0669C74.4673 22.2859 74.7512 22.458 75.086 22.5817C75.4213 22.7059 75.9166 22.8633 76.572 23.0527C77.4463 23.2864 78.1641 23.5237 78.725 23.7645C79.2858 24.0054 79.77 24.3598 80.1779 24.8267C80.5859 25.2941 80.7967 25.9148 80.8119 26.6883C80.8119 27.3746 80.6224 27.9882 80.2435 28.5284C79.8645 29.0687 79.329 29.4923 78.6371 29.7988C77.9457 30.1054 77.1328 30.2586 76.2006 30.2586C75.2684 30.2586 74.4048 30.0865 73.6549 29.7439L73.6565 29.7433Z" fill="currentColor"/>
<path d="M92.1886 18.3858C92.91 18.7804 93.4775 19.3645 93.8935 20.1379C94.3086 20.9124 94.5159 21.8467 94.5159 22.9415V30.0598H92.0469V23.3132C92.0469 22.2332 91.7771 21.4043 91.2376 20.8274C90.6991 20.2505 89.963 19.9623 89.0308 19.9623C88.0985 19.9623 87.3583 20.2505 86.8122 20.8274C86.2661 21.4043 85.9928 22.2332 85.9928 23.3132V30.0598H83.502V13.8516H85.9928V19.3935C86.4155 18.8823 86.9504 18.4882 87.5991 18.2107C88.2469 17.9337 88.9571 17.7947 89.7298 17.7947C90.6473 17.7947 91.4672 17.9917 92.1881 18.3858H92.1886Z" fill="currentColor"/>
<path d="M100.174 17.9922V30.0608H97.6836V17.9922H100.174Z" fill="currentColor"/>
<path d="M107.671 18.3642C108.399 17.9848 109.222 17.7949 110.14 17.7949C111.188 17.7949 112.146 18.0541 113.014 18.5724C113.88 19.0908 114.561 19.8174 115.057 20.7517C115.553 21.6866 115.8 22.76 115.8 23.9713C115.8 25.1826 115.553 26.2677 115.057 27.2245C114.562 28.1812 113.88 28.9256 113.014 29.4582C112.146 29.9914 111.188 30.2577 110.14 30.2577C109.222 30.2577 108.406 30.0718 107.692 29.6991C106.978 29.3269 106.396 28.8635 105.944 28.3085V35.7991H103.453V17.992H105.944V19.766C106.367 19.211 106.942 18.744 107.671 18.3642ZM112.751 21.8139C112.409 21.208 111.957 20.7482 111.397 20.434C110.835 20.1198 110.234 19.963 109.594 19.963C108.953 19.963 108.373 20.1239 107.812 20.4447C107.251 20.766 106.799 21.2329 106.457 21.8465C106.115 22.4601 105.943 23.1826 105.943 24.0151C105.943 24.8476 106.115 25.5742 106.457 26.1944C106.799 26.8151 107.251 27.2861 107.812 27.6074C108.373 27.9287 108.967 28.0891 109.594 28.0891C110.22 28.0891 110.835 27.9246 111.397 27.5962C111.956 27.2677 112.409 26.7891 112.751 26.1613C113.094 25.5335 113.265 24.8033 113.265 23.9708C113.265 23.1383 113.094 22.4198 112.751 21.8134V21.8139Z" fill="currentColor"/>
<path d="M52.7857 12.9912H53.4883C54.1696 12.9912 54.7213 13.5447 54.7213 14.227V15.8212V16.167V16.5972C54.7213 16.5972 54.5033 16.167 53.7677 16.167H52.7857C52.1044 16.167 51.5527 15.6135 51.5527 14.9312V14.227C51.5527 13.5442 52.105 12.9912 52.7857 12.9912Z" fill="currentColor"/>
<path d="M99.2735 12.9912H98.5709C97.8896 12.9912 97.3379 13.5447 97.3379 14.227V15.8212V16.167V16.5972C97.3379 16.5972 97.5558 16.167 98.2914 16.167H99.2735C99.9547 16.167 100.506 15.6135 100.506 14.9312V14.227C100.506 13.5442 99.9542 12.9912 99.2735 12.9912Z" fill="currentColor"/>
</svg>
