<svg width="42" height="13" viewBox="0 0 42 13" fill="none" xmlns="http://www.w3.org/2000/svg">
<path d="M2.5831 6.12218L5.5929 9.38846H3.76818L1.35064 6.5736V9.38846H0V0.599609H1.35064V5.70665L3.72052 2.84431H5.5929L2.5831 6.12218Z" fill="#8E8E8E"/>
<path d="M7.91509 2.84375V9.3879H6.56445V2.84375H7.91509Z" fill="#8E8E8E"/>
<path d="M14.3681 3.05786C14.775 3.27184 15.0929 3.58852 15.3221 4.00792C15.5513 4.42787 15.6656 4.93452 15.6656 5.52813V9.38803H14.3268V5.72969C14.3268 5.14408 14.1805 4.69459 13.888 4.38176C13.596 4.06894 13.1968 3.91267 12.6913 3.91267C12.1858 3.91267 11.7845 4.06894 11.4883 4.38176C11.1922 4.69459 11.044 5.14408 11.044 5.72969V9.38803H9.69336V2.84388H11.044V3.59211C11.2652 3.32291 11.5476 3.11336 11.8916 2.96288C12.2351 2.81268 12.6004 2.7373 12.9877 2.7373C13.5012 2.7373 13.9612 2.84416 14.3681 3.05786Z" fill="#8E8E8E"/>
<path d="M18.3725 9.21574C17.965 9.02965 17.6433 8.77618 17.4064 8.45563C17.1695 8.1348 17.043 7.7767 17.0273 7.38077H18.4256C18.4493 7.65797 18.5816 7.88962 18.8223 8.07544C19.0634 8.26181 19.3658 8.35485 19.7292 8.35485C20.0925 8.35485 20.4027 8.28169 20.6118 8.13508C20.8211 7.98875 20.9255 7.80072 20.9255 7.571C20.9255 7.32583 20.809 7.1436 20.576 7.0246C20.3432 6.90588 19.9738 6.77528 19.4683 6.63281C18.9782 6.49835 18.5796 6.36748 18.2714 6.24075C17.9631 6.11402 17.6965 5.92019 17.4714 5.65873C17.2463 5.39754 17.1334 5.05296 17.1334 4.62556C17.1334 4.27712 17.2362 3.95878 17.4417 3.66942C17.6472 3.38062 17.9411 3.15284 18.3243 2.98662C18.7074 2.82041 19.1476 2.7373 19.6457 2.7373C20.3881 2.7373 20.9861 2.92533 21.4407 3.30138C21.8947 3.6777 22.1379 4.19042 22.1693 4.83926H20.8187C20.795 4.54659 20.6765 4.31301 20.463 4.13879C20.2495 3.96457 19.9614 3.87733 19.5978 3.87733C19.2341 3.87733 18.9697 3.94469 18.7804 4.07943C18.5906 4.21389 18.4959 4.39225 18.4959 4.61396C18.4959 4.78818 18.5592 4.93452 18.6857 5.05324C18.8121 5.17196 18.9661 5.26529 19.1477 5.33238C19.3295 5.39975 19.598 5.48506 19.9534 5.58777C20.4275 5.7145 20.8167 5.84316 21.1209 5.97376C21.425 6.10436 21.6875 6.29652 21.9087 6.54971C22.1299 6.80317 22.2442 7.13974 22.2525 7.55913C22.2525 7.93132 22.1497 8.26402 21.9442 8.55696C21.7387 8.84991 21.4484 9.07962 21.0732 9.24583C20.6983 9.41205 20.2575 9.49515 19.752 9.49515C19.2465 9.49515 18.7782 9.40183 18.3716 9.21601L18.3725 9.21574Z" fill="#8E8E8E"/>
<path d="M28.4212 3.05731C28.8124 3.27129 29.1201 3.58798 29.3457 4.00738C29.5708 4.42733 29.6832 4.93397 29.6832 5.52759V9.38748H28.3444V5.72914C28.3444 5.14353 28.1981 4.69404 27.9055 4.38122C27.6135 4.0684 27.2144 3.91212 26.7089 3.91212C26.2034 3.91212 25.802 4.0684 25.5059 4.38122C25.2098 4.69404 25.0616 5.14353 25.0616 5.72914V9.38748H23.7109V0.598633H25.0616V3.60372C25.2908 3.32651 25.5808 3.11281 25.9326 2.96233C26.2838 2.81214 26.669 2.73676 27.0879 2.73676C27.5854 2.73676 28.0301 2.84361 28.421 3.05731H28.4212Z" fill="#8E8E8E"/>
<path d="M32.753 2.84375V9.3879H31.4023V2.84375H32.753Z" fill="#8E8E8E"/>
<path d="M36.8163 3.04599C37.211 2.84029 37.6573 2.7373 38.1553 2.7373C38.7236 2.7373 39.2432 2.87784 39.7134 3.15891C40.1834 3.43998 40.5525 3.83398 40.8216 4.34063C41.0902 4.84755 41.2244 5.42957 41.2244 6.08641C41.2244 6.74326 41.0902 7.33163 40.8216 7.85042C40.5528 8.36922 40.1834 8.77287 39.7134 9.06168C39.2432 9.35075 38.7236 9.49515 38.1553 9.49515C37.6573 9.49515 37.2149 9.39438 36.8278 9.19227C36.4408 8.99044 36.1248 8.73919 35.8799 8.43824V12.5H34.5293V2.84416H35.8799V3.80609C36.1091 3.50514 36.421 3.25196 36.8163 3.04599ZM39.5713 4.91657C39.3856 4.58801 39.1404 4.33869 38.8366 4.16833C38.5319 3.99798 38.206 3.91294 37.8589 3.91294C37.5118 3.91294 37.197 4.00019 36.8928 4.17414C36.5887 4.34836 36.3438 4.60154 36.1582 4.93424C35.9725 5.26694 35.8794 5.65873 35.8794 6.11016C35.8794 6.56158 35.9725 6.95557 36.1582 7.29187C36.3438 7.62843 36.5887 7.88383 36.8928 8.05805C37.197 8.23227 37.5193 8.31924 37.8589 8.31924C38.1986 8.31924 38.5319 8.23006 38.8366 8.05197C39.1401 7.87389 39.3856 7.61435 39.5713 7.27392C39.7569 6.93349 39.8495 6.53756 39.8495 6.08613C39.8495 5.63471 39.7569 5.24513 39.5713 4.9163V4.91657Z" fill="#8E8E8E"/>
<path d="M7.05529 0.131836H7.43627C7.80567 0.131836 8.10484 0.431957 8.10484 0.801932V1.6664V1.85388V2.08718C8.10484 2.08718 7.98666 1.85388 7.58778 1.85388H7.05529C6.68588 1.85388 6.38672 1.55376 6.38672 1.18378V0.801932C6.38672 0.43168 6.68616 0.131836 7.05529 0.131836Z" fill="#8E8E8E"/>
<path d="M32.2624 0.131836H31.8815C31.5121 0.131836 31.2129 0.431957 31.2129 0.801932V1.6664V1.85388V2.08718C31.2129 2.08718 31.3311 1.85388 31.73 1.85388H32.2624C32.6318 1.85388 32.931 1.55376 32.931 1.18378V0.801932C32.931 0.43168 32.6316 0.131836 32.2624 0.131836Z" fill="#8E8E8E"/>
</svg>
