<svg viewBox="0 0 116 38" fill="none" xmlns="http://www.w3.org/2000/svg">
  <path d="M8.69116 8.55629C6.55341 8.55629 4.81445 6.81336 4.81445 4.67072C4.81445 2.52809 6.5529 0.785156 8.69116 0.785156C10.8294 0.785156 12.5684 2.52809 12.5684 4.67072C12.5684 6.81336 10.8289 8.55629 8.69116 8.55629V8.55629ZM8.69116 3.15031C7.85496 3.15031 7.17472 3.8321 7.17472 4.67072C7.17472 5.50935 7.85496 6.19114 8.69116 6.19114C9.52737 6.19114 10.2086 5.50935 10.2086 4.67072C10.2086 3.8321 9.52838 3.15031 8.69116 3.15031Z" fill="currentColor"/>
  <path d="M19.8533 13.9625C17.7155 13.9625 15.9766 12.2196 15.9766 10.077C15.9766 7.93434 17.715 6.19141 19.8533 6.19141C21.9915 6.19141 23.7305 7.93434 23.7305 10.077C23.7305 12.2196 21.991 13.9625 19.8533 13.9625ZM19.8533 8.55656C19.0171 8.55656 18.3368 9.23835 18.3368 10.077C18.3368 10.9156 19.0171 11.5974 19.8533 11.5974C20.6895 11.5974 21.3707 10.9156 21.3707 10.077C21.3707 9.23835 20.6905 8.55656 19.8533 8.55656Z" fill="currentColor"/>
  <path d="M10.355 10.209H7.02543C3.15177 10.209 0 13.3679 0 17.2505V30.6328L1.97112 28.8496C1.98382 28.8374 3.37529 27.6291 5.35912 27.6291H9.35979C9.35064 27.4759 9.3354 27.3241 9.3354 27.1683V25.2635H5.35912C4.1866 25.2635 3.16599 25.5481 2.36027 25.8928V17.2505C2.36027 14.672 4.45281 12.5741 7.02594 12.5741H10.3555C12.9286 12.5741 15.0212 14.672 15.0212 17.2505V20.5876C15.0212 21.9095 14.4659 23.0994 13.583 23.9508V26.8353C15.836 25.6611 17.3809 23.3036 17.3809 20.5876V17.2505C17.3809 13.3679 14.2292 10.209 10.3555 10.209H10.355Z" fill="currentColor"/>
  <path d="M20.6333 16.791H18.2913C18.301 16.9453 18.3248 17.095 18.3248 17.2518V19.1567H20.6333C23.2064 19.1567 25.2989 21.2545 25.2989 23.833V32.4753C24.4932 32.1301 23.4726 31.846 22.3011 31.846H17.3047C14.7316 31.846 12.6391 29.7482 12.6391 27.1697V23.8325C12.6391 22.5107 13.1943 21.3207 14.0773 20.4693V17.5848C11.8242 18.759 10.2793 21.1165 10.2793 23.8325V27.1697C10.2793 31.0522 13.4311 34.2111 17.3047 34.2111H22.3011C24.2814 34.2111 25.68 35.4245 25.6881 35.4317L27.6592 37.2148V23.8325C27.6592 19.95 24.5075 16.791 20.6338 16.791H20.6333Z" fill="currentColor"/>
  <path d="M44.5391 24.8233L50.0897 30.847H46.7246L42.2662 25.6558V30.847H39.7754V14.6387H42.2662V24.057L46.6367 18.7783H50.0897L44.5391 24.8233Z" fill="currentColor"/>
  <path d="M54.3717 18.7773V30.846H51.8809V18.7773H54.3717V18.7773Z" fill="currentColor"/>
  <path d="M66.2696 19.1712C67.0199 19.5659 67.6062 20.1499 68.0288 20.9233C68.4515 21.6978 68.6623 22.6321 68.6623 23.7269V30.8453H66.1934V24.0986C66.1934 23.0186 65.9236 22.1897 65.3841 21.6128C64.8456 21.0359 64.1095 20.7477 63.1772 20.7477C62.245 20.7477 61.5048 21.0359 60.9587 21.6128C60.4126 22.1897 60.1393 23.0186 60.1393 24.0986V30.8453H57.6484V18.7766H60.1393V20.1565C60.5472 19.6601 61.0679 19.2736 61.7025 18.9961C62.336 18.7191 63.0096 18.5801 63.7239 18.5801C64.6708 18.5801 65.5192 18.7771 66.2696 19.1712V19.1712Z" fill="currentColor"/>
  <path d="M73.6565 30.5295C72.9051 30.1863 72.3117 29.7189 71.8748 29.1277C71.4379 28.536 71.2047 27.8756 71.1758 27.1454H73.7545C73.7982 27.6567 74.042 28.0839 74.4861 28.4266C74.9306 28.7703 75.4884 28.9418 76.1585 28.9418C76.8285 28.9418 77.4006 28.8069 77.7862 28.5365C78.1723 28.2667 78.3648 27.9199 78.3648 27.4963C78.3648 27.0441 78.1499 26.7081 77.7201 26.4886C77.2908 26.2697 76.6096 26.0288 75.6774 25.7661C74.7736 25.5181 74.0385 25.2768 73.47 25.043C72.9015 24.8093 72.4098 24.4519 71.9947 23.9697C71.5797 23.488 71.3714 22.8525 71.3714 22.0643C71.3714 21.4217 71.5609 20.8347 71.9398 20.301C72.3188 19.7684 72.8609 19.3484 73.5675 19.0418C74.2742 18.7353 75.086 18.582 76.0045 18.582C77.3736 18.582 78.4766 18.9288 79.3148 19.6223C80.152 20.3163 80.6006 21.2619 80.6585 22.4584H78.1677C78.124 21.9187 77.9055 21.4879 77.5118 21.1666C77.1181 20.8453 76.5867 20.6844 75.9161 20.6844C75.2455 20.6844 74.7578 20.8087 74.4088 21.0572C74.0588 21.3051 73.884 21.6341 73.884 22.0429C73.884 22.3642 74.0009 22.6341 74.2341 22.853C74.4673 23.072 74.7512 23.2441 75.086 23.3678C75.4213 23.4921 75.9166 23.6494 76.572 23.8388C77.4463 24.0725 78.1641 24.3098 78.725 24.5507C79.2858 24.7915 79.77 25.1459 80.1779 25.6128C80.5859 26.0802 80.7967 26.7009 80.8119 27.4744C80.8119 28.1608 80.6224 28.7743 80.2435 29.3146C79.8645 29.8548 79.329 30.2784 78.6371 30.585C77.9457 30.8915 77.1328 31.0448 76.2006 31.0448C75.2684 31.0448 74.4048 30.8727 73.6549 30.53L73.6565 30.5295Z" fill="currentColor"/>
  <path d="M92.1886 19.171C92.91 19.5656 93.4775 20.1496 93.8935 20.9231C94.3086 21.6975 94.5159 22.6319 94.5159 23.7266V30.845H92.0469V24.0983C92.0469 23.0184 91.7771 22.1894 91.2376 21.6125C90.6991 21.0356 89.963 20.7474 89.0308 20.7474C88.0985 20.7474 87.3583 21.0356 86.8122 21.6125C86.2661 22.1894 85.9928 23.0184 85.9928 24.0983V30.845H83.502V14.6367H85.9928V20.1787C86.4155 19.6674 86.9504 19.2733 87.5991 18.9958C88.2469 18.7188 88.9571 18.5798 89.7298 18.5798C90.6473 18.5798 91.4672 18.7769 92.1881 19.171H92.1886Z" fill="currentColor"/>
  <path d="M100.174 18.7773V30.846H97.6836V18.7773H100.174Z" fill="currentColor"/>
  <path d="M107.671 19.1493C108.399 18.77 109.222 18.5801 110.14 18.5801C111.188 18.5801 112.146 18.8393 113.014 19.3576C113.88 19.8759 114.561 20.6026 115.057 21.5369C115.553 22.4718 115.8 23.5451 115.8 24.7565C115.8 25.9678 115.553 27.0529 115.057 28.0096C114.562 28.9664 113.88 29.7108 113.014 30.2434C112.146 30.7765 111.188 31.0428 110.14 31.0428C109.222 31.0428 108.406 30.857 107.692 30.4842C106.978 30.112 106.396 29.6487 105.944 29.0937V36.5842H103.453V18.7771H105.944V20.5511C106.367 19.9961 106.942 19.5292 107.671 19.1493V19.1493ZM112.751 22.5991C112.409 21.9931 111.957 21.5333 111.397 21.2192C110.835 20.905 110.234 20.7482 109.594 20.7482C108.953 20.7482 108.373 20.9091 107.812 21.2299C107.251 21.5512 106.799 22.0181 106.457 22.6316C106.115 23.2452 105.943 23.9677 105.943 24.8002C105.943 25.6328 106.115 26.3594 106.457 26.9795C106.799 27.6002 107.251 28.0712 107.812 28.3925C108.373 28.7138 108.967 28.8742 109.594 28.8742C110.22 28.8742 110.835 28.7097 111.397 28.3813C111.956 28.0529 112.409 27.5743 112.751 26.9465C113.094 26.3186 113.265 25.5885 113.265 24.7559C113.265 23.9234 113.094 23.205 112.751 22.5985V22.5991Z" fill="currentColor"/>
  <path d="M52.7857 13.7754H53.4883C54.1696 13.7754 54.7213 14.3289 54.7213 15.0112V16.6054V16.9512V17.3814C54.7213 17.3814 54.5033 16.9512 53.7677 16.9512H52.7857C52.1044 16.9512 51.5527 16.3977 51.5527 15.7154V15.0112C51.5527 14.3284 52.105 13.7754 52.7857 13.7754V13.7754Z" fill="currentColor"/>
  <path d="M99.2735 13.7754H98.5709C97.8896 13.7754 97.3379 14.3289 97.3379 15.0112V16.6054V16.9512V17.3814C97.3379 17.3814 97.5558 16.9512 98.2914 16.9512H99.2735C99.9547 16.9512 100.506 16.3977 100.506 15.7154V15.0112C100.506 14.3284 99.9542 13.7754 99.2735 13.7754V13.7754Z" fill="currentColor"/>
</svg>
