<svg height="1em" viewBox="0 0 48 48" fill="none" xmlns="http://www.w3.org/2000/svg">
<path d="M23.2347 19.8501C19.5334 19.8501 16.5226 16.8325 16.5226 13.1227C16.5226 9.41302 19.5325 6.39535 23.2347 6.39535C26.9368 6.39535 29.9476 9.41302 29.9476 13.1227C29.9476 16.8325 26.9359 19.8501 23.2347 19.8501ZM23.2347 10.4903C21.7869 10.4903 20.6091 11.6708 20.6091 13.1227C20.6091 14.5747 21.7869 15.7552 23.2347 15.7552C24.6825 15.7552 25.862 14.5747 25.862 13.1227C25.862 11.6708 24.6842 10.4903 23.2347 10.4903Z" fill="currentColor"/>
<path d="M20.3502 22.7117H26.115C32.8218 22.7117 38.2795 28.1811 38.2795 34.9032V40.6811L33.8335 43.0636C34.0675 42.3108 34.1939 41.511 34.1939 40.6811V34.9032C34.1939 30.4388 30.5709 26.8067 26.1159 26.8067H20.3511C15.896 26.8067 12.2731 30.4388 12.2731 34.9032V42.2661L8.18654 39.0762V34.9032C8.18654 28.1811 13.6434 22.7117 20.3502 22.7117Z" fill="currentColor"/>
<path d="M3.98736 24C3.98736 12.9473 12.9473 3.98736 24 3.98736C35.0527 3.98736 44.0126 12.9473 44.0126 24C44.0126 31.7219 39.6388 38.4263 33.2271 41.7637V45.9831L33.2909 46.1349C41.9284 42.5054 48 33.9641 48 24C48 10.7452 37.2548 0 24 0C10.7452 0 0 10.7452 0 24C0 37.2548 10.7452 48 24 48C24.7168 48 25.4267 47.9685 26.1283 47.9068V43.901C25.4296 43.9747 24.7195 44.0126 24 44.0126C12.9473 44.0126 3.98736 35.0527 3.98736 24Z" fill="currentColor"/>
</svg>
