<svg viewBox="0 0 14 14" fill="none" xmlns="http://www.w3.org/2000/svg">
  <path opacity="0.16" d="M4.33333 12.9993H9.66667C10.0203 12.9993 10.3594 12.8589 10.6095 12.6088C10.8595 12.3588 11 12.0196 11 11.666V3.66602H3V11.666C3 12.0196 3.14048 12.3588 3.39052 12.6088C3.64057 12.8589 3.97971 12.9993 4.33333 12.9993Z" fill="currentColor"/>
  <path d="M8.33268 6.33333V10.3333M5.66602 6.33333V10.3333M2.99935 3.66667V11.6667C2.99935 12.0203 3.13982 12.3594 3.38987 12.6095C3.63992 12.8595 3.97906 13 4.33268 13H9.66602C10.0196 13 10.3588 12.8595 10.6088 12.6095C10.8589 12.3594 10.9993 12.0203 10.9993 11.6667V3.66667M1.66602 3.66667H12.3327M3.66602 3.66667L4.99935 1H8.99935L10.3327 3.66667" stroke="currentColor" stroke-width="1.5" stroke-linecap="round" stroke-linejoin="round"/>
</svg>
